<?xml version="1.0" encoding="UTF-8" standalone="no"?>
<!-- ANDY'S MIXXX lockup (toolbar) - ANDY'S from andys_glyph_gen.py, MIXXX embedded verbatim from res/skins/LateNight/classic/style/mixxx_logo_small.svg -->
<svg xmlns="http://www.w3.org/2000/svg" xmlns:xlink="http://www.w3.org/1999/xlink" width="158.2600" height="24.0000" viewBox="0 0 158.2600 24.0000" version="1.1">
<g transform="translate(0.0000,0)">
  <defs><linearGradient id="an_slash" gradientUnits="userSpaceOnUse" x1="14.6509" y1="3.0873" x2="2.4821" y2="20.9126"><stop offset="0.0" stop-color="#652866"/><stop offset="0.12875939849624066" stop-color="#7c287b"/><stop offset="0.2328141783029001" stop-color="#8b2589"/><stop offset="0.299140708915145" stop-color="#91268f"/><stop offset="1.0" stop-color="#ed1b26"/></linearGradient>
    <linearGradient id="an_amber" gradientUnits="userSpaceOnUse"
       x1="0" y1="3.0873444" x2="0" y2="20.912646">
      <stop offset="0" stop-color="#ffd235"/>
      <stop offset="1" stop-color="#feb30a"/>
    </linearGradient>
    <linearGradient id="an_amberM" gradientUnits="userSpaceOnUse"
       x1="0" y1="0.01288623" x2="0" y2="40.000133">
      <stop offset="0" stop-color="#ffd235"/>
      <stop offset="1" stop-color="#feb30a"/>
    </linearGradient>
  </defs>
  <g transform="translate(67.7397,0)"><path d="M 3.0300,3.0873 L 6.6624,3.0873 L 3.6324,7.5258 L 0.0000,7.5258 Z" fill="none" stroke="#0f0f0f" stroke-width="1.5" stroke-linejoin="round" stroke-miterlimit="4"/><path d="M 3.0300,3.0873 L 6.6624,3.0873 L 3.6324,7.5258 L 0.0000,7.5258 Z" fill="url(#an_amber)"/></g>
  <g transform="translate(70.7897,0)"><linearGradient id="an_sgrad4" gradientUnits="userSpaceOnUse" x1="9.5837" y1="8.2989" x2="0.8798" y2="21.0487"><stop offset="0.0000" stop-color="#39b549"/><stop offset="1.0000" stop-color="#1a76bc"/></linearGradient><path d="M 9.4792,12.0711 L 8.9635,11.5265 C 7.6357,10.1245 6.7134,9.7429 4.8041,9.8053 C 2.8947,9.8676 2.3868,10.2959 2.5134,11.7372 C 2.6400,13.1783 3.2428,13.8295 5.2318,14.6738 C 7.2208,15.5181 7.8235,16.1691 7.9502,17.6104 C 8.0768,19.0516 7.5689,19.4799 5.6595,19.5423 C 3.7502,19.6047 2.8279,19.2230 1.5000,17.8210 L 0.9843,17.2764" fill="none" stroke="#0f0f0f" stroke-width="4.5000" stroke-linejoin="round" stroke-linecap="butt" stroke-miterlimit="4"/><path d="M 8.9635,11.5265 C 7.6357,10.1245 6.7134,9.7429 4.8041,9.8053 C 2.8947,9.8676 2.3868,10.2959 2.5134,11.7372 C 2.6400,13.1783 3.2428,13.8295 5.2318,14.6738 C 7.2208,15.5181 7.8235,16.1691 7.9502,17.6104 C 8.0768,19.0516 7.5689,19.4799 5.6595,19.5423 C 3.7502,19.6047 2.8279,19.2230 1.5000,17.8210" fill="none" stroke="url(#an_sgrad4)" stroke-width="3.0000" stroke-linejoin="round" stroke-linecap="butt" stroke-miterlimit="4"/></g>
  <g transform="translate(50.6497,0)"><path d="M 0.0000,20.9126 L 12.1688,3.0873 L 17.1331,3.0873 L 4.9643,20.9126 Z" fill="none" stroke="#0f0f0f" stroke-width="1.5" stroke-linejoin="round" stroke-miterlimit="4"/><path d="M 0.0000,20.9126 L 12.1688,3.0873 L 17.1331,3.0873 L 4.9643,20.9126 Z" fill="url(#an_slash)"/><path d="M 8.5666,15.6359 L 0.0000,3.0873 L 4.9643,3.0873 L 11.0487,12.0000" fill="none" stroke="#0f0f0f" stroke-width="1.5" stroke-linejoin="round" stroke-miterlimit="4"/><path d="M 0.0000,3.0873 L 4.9643,3.0873 L 11.0487,12.0000 L 8.5666,15.6359 Z" fill="url(#an_amber)"/></g>
  <g transform="translate(35.5597,0)"><path d="M 0.0000,3.0873 L 4.1000,3.0873 C 12.6320,3.0873 15.9500,5.5829 15.9500,12.0000 C 15.9500,18.4171 12.6320,20.9126 4.1000,20.9126 L 0.0000,20.9126 Z M 4.1000,6.7363 L 4.1000,6.7363 C 9.6800,6.7363 11.8500,8.2102 11.8500,12.0000 C 11.8500,15.7898 9.6800,17.2636 4.1000,17.2636 L 4.1000,17.2636 Z" fill="none" stroke="#0f0f0f" stroke-width="1.5" stroke-linejoin="round" stroke-miterlimit="4"/><path d="M 0.0000,3.0873 L 4.1000,3.0873 C 12.6320,3.0873 15.9500,5.5829 15.9500,12.0000 C 15.9500,18.4171 12.6320,20.9126 4.1000,20.9126 L 0.0000,20.9126 Z M 4.1000,6.7363 L 4.1000,6.7363 C 9.6800,6.7363 11.8500,8.2102 11.8500,12.0000 C 11.8500,15.7898 9.6800,17.2636 4.1000,17.2636 L 4.1000,17.2636 Z" fill="url(#an_amber)" fill-rule="evenodd"/></g>
  <g transform="translate(17.6050,0)"><path d="M 0.0000,3.0873 L 4.5988,3.0873 L 11.8548,14.4769 L 11.8548,3.0873 L 15.9548,3.0873 L 15.9548,20.9126 L 11.3560,20.9126 L 4.1000,9.5231 L 4.1000,20.9126 L 0.0000,20.9126 Z" fill="none" stroke="#0f0f0f" stroke-width="1.5" stroke-linejoin="round" stroke-miterlimit="4"/><path d="M 0.0000,3.0873 L 4.5988,3.0873 L 11.8548,14.4769 L 11.8548,3.0873 L 15.9548,3.0873 L 15.9548,20.9126 L 11.3560,20.9126 L 4.1000,9.5231 L 4.1000,20.9126 L 0.0000,20.9126 Z" fill="url(#an_amber)" fill-rule="evenodd"/></g>
  <g transform="translate(0.0000,0)"><path d="M 0.0000,20.9126 L 7.9097,3.0873 L 12.3952,3.0873 L 20.3050,20.9126 L 15.8194,20.9126 L 13.8606,16.4983 L 6.4443,16.4983 L 4.4855,20.9126 Z M 10.1525,8.1416 L 12.2414,12.8493 L 8.0635,12.8493 Z" fill="none" stroke="#0f0f0f" stroke-width="1.5" stroke-linejoin="round" stroke-miterlimit="4"/><path d="M 0.0000,20.9126 L 7.9097,3.0873 L 12.3952,3.0873 L 20.3050,20.9126 L 15.8194,20.9126 L 13.8606,16.4983 L 6.4443,16.4983 L 4.4855,20.9126 Z M 10.1525,8.1416 L 12.2414,12.8493 L 8.0635,12.8493 Z" fill="url(#an_amber)" fill-rule="evenodd"/></g>
</g>
<g transform="translate(85.1600,0)">
  
  <defs
     id="mx_defs57">
    <linearGradient
       gradientUnits="userSpaceOnUse"
       gradientTransform="matrix(0.19912877,0,0,0.20002033,56.013392,3.0873529)"
       y2="88.766998"
       y1="-0.1462"
       x2="13.486"
       x1="74.992996"
       id="mx_g">
      <stop
         id="mx_stop2"
         offset=".478"
         stop-color="#39b549" />
      <stop
         id="mx_stop4"
         offset="1"
         stop-color="#1a76bc" />
    </linearGradient>
    <linearGradient
       gradientUnits="userSpaceOnUse"
       gradientTransform="matrix(0.19912877,0,0,0.20002033,31.636499,3.0873529)"
       y2="88.766998"
       y1="-0.15009999"
       x2="13.488"
       x1="74.998001"
       id="mx_f">
      <stop
         id="mx_stop7"
         offset="0"
         stop-color="#381f1f" />
      <stop
         id="mx_stop9"
         offset=".0017"
         stop-color="#3a1f20" />
      <stop
         id="mx_stop11"
         offset=".0376"
         stop-color="#5b2825" />
      <stop
         id="mx_stop13"
         offset=".0757"
         stop-color="#7c2f28" />
      <stop
         id="mx_stop15"
         offset=".1173"
         stop-color="#9b2e28" />
      <stop
         id="mx_stop17"
         offset=".1626"
         stop-color="#b62c28" />
      <stop
         id="mx_stop19"
         offset=".2129"
         stop-color="#cc2626" />
      <stop
         id="mx_stop21"
         offset=".271"
         stop-color="#dc2225" />
      <stop
         id="mx_stop23"
         offset=".3438"
         stop-color="#e81f25" />
      <stop
         id="mx_stop25"
         offset=".478"
         stop-color="#ed1b26" />
      <stop
         id="mx_stop27"
         offset="1"
         stop-color="#f7921e" />
    </linearGradient>
    <linearGradient
       gradientUnits="userSpaceOnUse"
       gradientTransform="matrix(0.19912877,0,0,0.20002033,43.826283,3.0873529)"
       y2="88.765999"
       y1="-0.1471"
       x2="13.485"
       x1="74.991997"
       id="mx_e">
      <stop
         id="mx_stop30"
         offset="0"
         stop-color="#120e1e" />
      <stop
         id="mx_stop32"
         offset=".0231"
         stop-color="#1b1426" />
      <stop
         id="mx_stop34"
         offset=".1446"
         stop-color="#442349" />
      <stop
         id="mx_stop36"
         offset=".2552"
         stop-color="#652866" />
      <stop
         id="mx_stop38"
         offset=".3511"
         stop-color="#7c287b" />
      <stop
         id="mx_stop40"
         offset=".4286"
         stop-color="#8b2589" />
      <stop
         id="mx_stop42"
         offset=".478"
         stop-color="#91268f" />
      <stop
         id="mx_stop44"
         offset="1"
         stop-color="#ed1b26" />
    </linearGradient>
    <linearGradient
       gradientUnits="userSpaceOnUse"
       y2="89.146004"
       y1="0.028000001"
       x2="0"
       id="mx_a">
      <stop
         id="mx_stop47"
         offset="0"
         stop-color="#ffd235" />
      <stop
         id="mx_stop49"
         offset="1"
         stop-color="#feb30a" />
    </linearGradient>
    <linearGradient
       xlink:href="#mx_a"
       gradientUnits="userSpaceOnUse"
       gradientTransform="matrix(0.4467,0,0,0.4487,65.950788,0.01288623)"
       y2="89.146004"
       y1="0.028000001"
       x2="0"
       id="mx_d" />
    <linearGradient
       xlink:href="#mx_a"
       gradientUnits="userSpaceOnUse"
       gradientTransform="matrix(0.4467,0,0,0.4487,93.288828,0.01288623)"
       y2="89.146004"
       y1="0.028000001"
       x2="0"
       id="mx_c" />
    <linearGradient
       xlink:href="#mx_a"
       gradientUnits="userSpaceOnUse"
       gradientTransform="matrix(0.4467,0,0,0.4487,120.63134,0.01288623)"
       y2="89.146004"
       y1="0.028000001"
       x2="0"
       id="mx_b" />
    <linearGradient
       xlink:href="#mx_a"
       gradientUnits="userSpaceOnUse"
       gradientTransform="matrix(0.4467,0,0,0.4487,51.508977,0.01288623)"
       y2="89.146004"
       y1="0.028000001"
       x2="0"
       id="mx_i" />
    <linearGradient
       xlink:href="#mx_a"
       gradientUnits="userSpaceOnUse"
       gradientTransform="matrix(0.4467,0,0,0.4487,0,0.01288623)"
       y2="89.146004"
       y1="0.028000001"
       x2="0"
       id="mx_h" />
    <linearGradient
       xlink:href="#mx_a-6"
       gradientUnits="userSpaceOnUse"
       gradientTransform="matrix(0.4467,0,0,0.4487,65.950788,0.01288623)"
       y2="89.146004"
       y1="0.028000001"
       x2="0"
       id="mx_d-3" />
    <linearGradient
       gradientUnits="userSpaceOnUse"
       y2="89.146004"
       y1="0.028000001"
       x2="0"
       id="mx_a-6">
      <stop
         id="mx_stop47-7"
         offset="0"
         stop-color="#ffd235" />
      <stop
         id="mx_stop49-5"
         offset="1"
         stop-color="#feb30a" />
    </linearGradient>
    <linearGradient
       xlink:href="#mx_a-6"
       gradientUnits="userSpaceOnUse"
       gradientTransform="matrix(0.4467,0,0,0.4487,93.288828,0.01288623)"
       y2="89.146004"
       y1="0.028000001"
       x2="0"
       id="mx_c-3" />
    <linearGradient
       gradientUnits="userSpaceOnUse"
       y2="89.146004"
       y1="0.028000001"
       x2="0"
       id="mx_linearGradient919">
      <stop
         id="mx_stop915"
         offset="0"
         stop-color="#ffd235" />
      <stop
         id="mx_stop917"
         offset="1"
         stop-color="#feb30a" />
    </linearGradient>
    <linearGradient
       xlink:href="#mx_a-6"
       gradientUnits="userSpaceOnUse"
       gradientTransform="matrix(0.4467,0,0,0.4487,120.63134,0.01288623)"
       y2="89.146004"
       y1="0.028000001"
       x2="0"
       id="mx_b-5" />
    <linearGradient
       gradientUnits="userSpaceOnUse"
       y2="89.146004"
       y1="0.028000001"
       x2="0"
       id="mx_linearGradient926">
      <stop
         id="mx_stop922"
         offset="0"
         stop-color="#ffd235" />
      <stop
         id="mx_stop924"
         offset="1"
         stop-color="#feb30a" />
    </linearGradient>
    <linearGradient
       xlink:href="#mx_a-6"
       gradientUnits="userSpaceOnUse"
       gradientTransform="matrix(0.4467,0,0,0.4487,51.508977,0.01288623)"
       y2="89.146004"
       y1="0.028000001"
       x2="0"
       id="mx_i-6" />
    <linearGradient
       gradientUnits="userSpaceOnUse"
       y2="89.146004"
       y1="0.028000001"
       x2="0"
       id="mx_linearGradient933">
      <stop
         id="mx_stop929"
         offset="0"
         stop-color="#ffd235" />
      <stop
         id="mx_stop931"
         offset="1"
         stop-color="#feb30a" />
    </linearGradient>
    <linearGradient
       xlink:href="#mx_a-6"
       gradientUnits="userSpaceOnUse"
       gradientTransform="matrix(0.4467,0,0,0.4487,0,0.01288623)"
       y2="89.146004"
       y1="0.028000001"
       x2="0"
       id="mx_h-2" />
    <linearGradient
       gradientUnits="userSpaceOnUse"
       y2="89.146004"
       y1="0.028000001"
       x2="0"
       id="mx_linearGradient940">
      <stop
         id="mx_stop936"
         offset="0"
         stop-color="#ffd235" />
      <stop
         id="mx_stop938"
         offset="1"
         stop-color="#feb30a" />
    </linearGradient>
    <linearGradient
       gradientUnits="userSpaceOnUse"
       gradientTransform="matrix(0.19912877,0,0,0.20002033,56.013392,3.0873525)"
       y2="88.766998"
       y1="-0.1462"
       x2="13.486"
       x1="74.992996"
       id="mx_g-3">
      <stop
         id="mx_stop2-6"
         offset=".478"
         stop-color="#39b549" />
      <stop
         id="mx_stop4-0"
         offset="1"
         stop-color="#1a76bc" />
    </linearGradient>
    <linearGradient
       gradientUnits="userSpaceOnUse"
       gradientTransform="matrix(0.19912877,0,0,0.20002033,31.636499,3.0873525)"
       y2="88.766998"
       y1="-0.15009999"
       x2="13.488"
       x1="74.998001"
       id="mx_f-6">
      <stop
         id="mx_stop7-2"
         offset="0"
         stop-color="#381f1f" />
      <stop
         id="mx_stop9-6"
         offset=".0017"
         stop-color="#3a1f20" />
      <stop
         id="mx_stop11-1"
         offset=".0376"
         stop-color="#5b2825" />
      <stop
         id="mx_stop13-8"
         offset=".0757"
         stop-color="#7c2f28" />
      <stop
         id="mx_stop15-7"
         offset=".1173"
         stop-color="#9b2e28" />
      <stop
         id="mx_stop17-9"
         offset=".1626"
         stop-color="#b62c28" />
      <stop
         id="mx_stop19-2"
         offset=".2129"
         stop-color="#cc2626" />
      <stop
         id="mx_stop21-0"
         offset=".271"
         stop-color="#dc2225" />
      <stop
         id="mx_stop23-2"
         offset=".3438"
         stop-color="#e81f25" />
      <stop
         id="mx_stop25-3"
         offset=".478"
         stop-color="#ed1b26" />
      <stop
         id="mx_stop27-7"
         offset="1"
         stop-color="#f7921e" />
    </linearGradient>
    <linearGradient
       gradientUnits="userSpaceOnUse"
       gradientTransform="matrix(0.19912877,0,0,0.20002033,43.826283,3.0873525)"
       y2="88.765999"
       y1="-0.1471"
       x2="13.485"
       x1="74.991997"
       id="mx_e-5">
      <stop
         id="mx_stop30-9"
         offset="0"
         stop-color="#120e1e" />
      <stop
         id="mx_stop32-2"
         offset=".0231"
         stop-color="#1b1426" />
      <stop
         id="mx_stop34-2"
         offset=".1446"
         stop-color="#442349" />
      <stop
         id="mx_stop36-8"
         offset=".2552"
         stop-color="#652866" />
      <stop
         id="mx_stop38-9"
         offset=".3511"
         stop-color="#7c287b" />
      <stop
         id="mx_stop40-7"
         offset=".4286"
         stop-color="#8b2589" />
      <stop
         id="mx_stop42-3"
         offset=".478"
         stop-color="#91268f" />
      <stop
         id="mx_stop44-6"
         offset="1"
         stop-color="#ed1b26" />
    </linearGradient>
  </defs>
  <g
     style="fill:none;stroke:#0f0f0f;stroke-opacity:1;stroke-width:1.5;stroke-miterlimit:4;stroke-dasharray:none;stroke-linejoin:round"
     id="mx_g1121">
    <path
       d="M 54.77413,20.912646 66.942962,3.087344 h 5.378751 L 60.15511,20.912646 Z"
       id="mx_path59-1"
       style="fill:none;stroke-width:1.5;stroke:#0f0f0f;stroke-opacity:1;stroke-miterlimit:4;stroke-dasharray:none;stroke-linejoin:round" />
    <path
       d="M 30.397238,20.912646 42.565178,3.087344 h 5.381871 L 35.780446,20.912646 Z"
       id="mx_path61-2"
       style="fill:none;stroke-width:1.5;stroke:#0f0f0f;stroke-opacity:1;stroke-miterlimit:4;stroke-dasharray:none;stroke-linejoin:round" />
    <path
       d="M 42.587021,20.912646 54.755853,3.087344 H 60.13505 L 47.968001,20.912646 Z"
       id="mx_path63-9"
       style="fill:none;stroke-width:1.5;stroke:#0f0f0f;stroke-opacity:1;stroke-miterlimit:4;stroke-dasharray:none;stroke-linejoin:round" />
  </g>
  <path
     style="fill:url(#mx_g);stroke-width:0.44577742"
     id="mx_path59"
     d="M 54.77413,20.912646 66.942962,3.0873444 h 5.378751 L 60.15511,20.912646 Z" />
  <path
     style="fill:url(#mx_f);stroke-width:0.44577742"
     id="mx_path61"
     d="M 30.397238,20.912646 42.565178,3.0873444 h 5.381871 L 35.780446,20.912646 Z" />
  <path
     style="fill:url(#mx_e);stroke-width:0.44577742"
     id="mx_path63"
     d="M 42.587021,20.912646 54.755853,3.0873444 H 60.13505 L 47.968001,20.912646 Z" />
  <g
     style="fill:none;stroke:#0f0f0f;stroke-width:3.36490798;stroke-miterlimit:4;stroke-dasharray:none;stroke-opacity:1;stroke-linejoin:round"
     id="mx_g83"
     transform="matrix(0.44577742,0,0,0.44577742,1,3.0815493)">
    <path
       style="fill:none;stroke:#0f0f0f;stroke-width:3.36490798;stroke-miterlimit:4;stroke-dasharray:none;stroke-opacity:1;stroke-linejoin:round"
       id="mx_path73"
       d="M 105.31533,40.000133 78.021962,0.01288623 H 65.950788 L 93.242371,40.000133 Z" />
    <path
       style="fill:none;stroke:#0f0f0f;stroke-width:3.36490798;stroke-miterlimit:4;stroke-dasharray:none;stroke-opacity:1;stroke-linejoin:round"
       id="mx_path75"
       d="M 132.65784,40.000133 105.35956,0.01288623 H 93.288828 L 120.58666,40.000133 Z" />
    <path
       style="fill:none;stroke:#0f0f0f;stroke-width:3.36490798;stroke-miterlimit:4;stroke-dasharray:none;stroke-opacity:1;stroke-linejoin:round"
       id="mx_path77"
       d="M 160.0008,40.000133 132.70251,0.01288623 H 120.63134 L 147.92962,40.000133 Z" />
    <path
       style="fill:none;fill-rule:evenodd;stroke:#0f0f0f;stroke-width:3.36490798;stroke-miterlimit:4;stroke-dasharray:none;stroke-opacity:1;stroke-linejoin:round"
       id="mx_path79"
       d="M 51.508977,0.01288623 H 61.834448 V 40.000133 H 51.508977 Z" />
    <path
       style="fill:none;stroke:#0f0f0f;stroke-width:3.36490798;stroke-miterlimit:4;stroke-dasharray:none;stroke-opacity:1;stroke-linejoin:round"
       id="mx_path81"
       d="M 10.124456,40.000133 V 16.583377 l 13.077589,19.939331 h 0.26668 L 36.682111,16.380565 V 40.000133 H 46.942363 V 0.01288623 H 35.812386 L 23.468725,19.951768 11.131317,0.01288623 H 0 V 40.000133 Z" />
  </g>
  <g
     id="mx_g83-9"
     transform="matrix(0.44577742,0,0,0.44577742,1,3.0815496)"
     style="stroke-width:0.44769889">
    <path
       id="mx_path73-1"
       d="M 105.31533,40.000133 78.021962,0.01288623 H 65.950788 L 93.242371,40.000133 Z"
       style="fill:url(#mx_d-3)" />
    <path
       id="mx_path75-2"
       d="M 132.65784,40.000133 105.35956,0.01288623 H 93.288828 L 120.58666,40.000133 Z"
       style="fill:url(#mx_c-3)" />
    <path
       id="mx_path77-7"
       d="M 160.0008,40.000133 132.70251,0.01288623 H 120.63134 L 147.92962,40.000133 Z"
       style="fill:url(#mx_b-5)" />
    <path
       id="mx_path79-0"
       d="M 51.508977,0.01288623 H 61.834448 V 40.000133 H 51.508977 Z"
       style="fill:url(#mx_i-6);fill-rule:evenodd" />
    <path
       id="mx_path81-9"
       d="M 10.124456,40.000133 V 16.583377 l 13.077589,19.939331 h 0.26668 L 36.682111,16.380565 V 40.000133 H 46.942363 V 0.01288623 H 35.812386 L 23.468725,19.951768 11.131317,0.01288623 H 0 V 40.000133 Z"
       style="fill:url(#mx_h-2)" />
  </g>
</g>
</svg>
